<svg width="150" height="150" viewBox="0 0 150 150" fill="none" xmlns="http://www.w3.org/2000/svg">
<circle id="Ellipse 1" cx="75" cy="75" r="63.75" stroke="black" stroke-width="12.5"/>
<path id="Polygon 1" d="M101.85 75.0687L62.775 97.6286C62.3793 97.857 62.0976 98.0196 61.8759 98.1342C61.6522 98.2499 61.5248 98.2977 61.4369 98.3164C60.6859 98.476 59.9357 98.0429 59.6984 97.3127C59.6706 97.2272 59.6484 97.093 59.6367 96.8414C59.6251 96.5921 59.625 96.2668 59.625 95.81V50.69C59.625 50.2332 59.6251 49.9079 59.6367 49.6586C59.6484 49.407 59.6706 49.2728 59.6984 49.1873C59.9357 48.4571 60.6859 48.024 61.4369 48.1836C61.5248 48.2023 61.6522 48.2501 61.8759 48.3658C62.0976 48.4804 62.3793 48.643 62.775 48.8714L101.85 71.4313C102.246 71.6598 102.527 71.8225 102.737 71.9572C102.949 72.0931 103.055 72.1795 103.115 72.2463C103.628 72.8168 103.628 73.6832 103.115 74.2537C103.055 74.3205 102.949 74.4069 102.737 74.5428C102.527 74.6775 102.246 74.8402 101.85 75.0687Z" fill="black" stroke="black"/>
<rect id="Rectangle 1" width="150" height="150" fill="#D9D9D9" fill-opacity="0.01"/>
</svg>
